<?xml version="1.0" encoding="UTF-8" standalone="no"?>
<!-- Created with Inkscape (http://www.inkscape.org/) -->

<svg
   width="512"
   height="512"
   viewBox="0 0 135.46666 135.46667"
   version="1.1"
   id="svg1"
   inkscape:version="1.4.2 (f4327f4, 2025-05-13)"
   sodipodi:docname="inowio-logo-dark.svg"
   xml:space="preserve"
   inkscape:export-filename="logo.png"
   inkscape:export-xdpi="96"
   inkscape:export-ydpi="96"
   xmlns:inkscape="http://www.inkscape.org/namespaces/inkscape"
   xmlns:sodipodi="http://sodipodi.sourceforge.net/DTD/sodipodi-0.dtd"
   xmlns="http://www.w3.org/2000/svg"
   xmlns:svg="http://www.w3.org/2000/svg"><sodipodi:namedview
     id="namedview1"
     pagecolor="#ffffff"
     bordercolor="#000000"
     borderopacity="0.25"
     inkscape:showpageshadow="2"
     inkscape:pageopacity="0.0"
     inkscape:pagecheckerboard="0"
     inkscape:deskcolor="#d1d1d1"
     inkscape:document-units="mm"
     inkscape:zoom="1"
     inkscape:cx="-77.5"
     inkscape:cy="76.5"
     inkscape:window-width="2560"
     inkscape:window-height="1494"
     inkscape:window-x="-11"
     inkscape:window-y="-11"
     inkscape:window-maximized="1"
     inkscape:current-layer="layer1"
     showgrid="false" /><defs
     id="defs1" /><g
     inkscape:label="Layer 1"
     inkscape:groupmode="layer"
     id="layer1"><ellipse
       style="fill:#006753;fill-opacity:1;stroke-width:0.231252"
       id="path5"
       cx="67.732559"
       cy="67.73333"
       rx="12.717228"
       ry="12.720427" /><path
       id="rect3-0-0-5-9-8-2"
       style="fill:#006753;fill-opacity:1;stroke-width:7.00999;stroke-linecap:round;stroke-linejoin:round;paint-order:stroke fill markers"
       d="M 74.529818 84.357125 A 17.955711 17.960226 0 0 1 67.732817 85.693477 A 17.955711 17.960226 0 0 1 60.937882 84.358158 L 55.089144 135.46667 L 80.375456 135.46667 L 74.529818 84.357125 z " /><path
       id="path5-8-7"
       style="fill:#006753;fill-opacity:1;stroke-width:0.575569"
       d="m 67.732563,36.072733 a 31.652384,31.660347 0 0 0 -29.30195,19.68717 v 5.16e-4 l 4.780417,1.959054 A 26.48605,26.492713 0 0 1 67.732563,41.240377 26.48605,26.492713 0 0 1 92.254094,57.719473 l 4.780418,-1.95957 A 31.652384,31.660347 0 0 0 67.732563,36.072733 Z" /><path
       id="path5-8-7-6-5"
       style="fill:#006753;fill-opacity:1;stroke-width:0.387679"
       d="m 67.732479,46.408139 a 21.319712,21.325076 0 0 0 -19.7411,13.271031 l 3.069288,1.257608 a 18.003099,18.007628 0 0 1 16.671812,-11.2113 18.003099,18.007628 0 0 1 16.671812,11.2113 l 3.06873,-1.257608 A 21.319712,21.325076 0 0 0 67.732479,46.408139 Z" /><path
       id="path2-2-6"
       style="fill:#0c1327;fill-opacity:1;stroke-width:0.582458"
       d="M 65.290443,0 59.756239,14.550966 A 53.764161,53.777687 0 0 0 48.320073,17.583628 L 41.951581,4.4772635 32.130419,10.064772 34.512185,25.450237 a 53.764161,53.777687 0 0 0 -8.60126,8.488436 L 13.858112,25.752219 8.1291472,35.493239 17.861579,47.642303 A 53.764161,53.777687 0 0 0 14.650547,59.193542 L 0.09263657,58.129627 -3.495828e-8,69.430795 14.47197,75.074681 a 53.764161,53.777687 0 0 0 2.992834,11.734885 L 4.3187666,93.090909 9.8379035,102.9525 25.235125,100.67451 a 53.764161,53.777687 0 0 0 8.710079,8.89034 l -8.183836,12.05584 9.73857,5.73153 12.146566,-9.73488 a 53.764161,53.777687 0 0 0 5.124594,1.77003 l 1.845478,-16.12396 A 37.865626,37.875153 0 0 1 48.531574,100.37811 37.865626,37.875153 0 0 1 35.095908,48.527596 37.865626,37.875153 0 0 1 68.042199,29.859401 37.865626,37.875153 0 0 1 86.932827,35.088549 37.865626,37.875153 0 0 1 100.36849,86.939067 37.865626,37.875153 0 0 1 80.850614,103.26285 l 1.844362,16.12396 a 53.764161,53.777687 0 0 0 4.44991,-1.50322 l 6.367934,13.1058 9.82172,-5.5875 -2.38177,-15.38491 a 53.764161,53.777687 0 0 0 8.60127,-8.48787 l 12.05225,8.18645 5.72952,-9.741577 -9.73187,-12.149622 a 53.764161,53.777687 0 0 0 3.24005,-11.737117 l 14.52889,1.062798 0.0938,-11.301169 -14.50099,-5.655608 a 53.764161,53.777687 0 0 0 -2.96493,-11.534493 l 13.14604,-6.281341 -5.5197,-9.861592 -15.39667,2.277986 a 53.764161,53.777687 0 0 0 -8.71067,-8.89201 L 109.70414,13.845969 99.964463,8.1150051 87.818455,17.849327 A 53.764161,53.777687 0 0 0 75.646776,14.541477 L 76.589328,0 Z"
       inkscape:export-filename="logo_4.png"
       inkscape:export-xdpi="96"
       inkscape:export-ydpi="96" /></g></svg>
